<svg
  xmlns="http://www.w3.org/2000/svg"
  width="64"
  height="64"
  viewBox="0 0 64 64"
  preserveAspectRatio="xMidYMid meet"
  role="img"
  aria-label="Narev"
>
  <rect width="64" height="64" fill="#FFFFFF" />

  <g transform="translate(32 32) scale(2.15) translate(-15.16 -13.77)">
    <g fill="#2D2D2D">
      <g transform="translate(9.837187 17.637024)">
        <path
          d="M 0.9375 0 L 0.9375 -8.015625 L 3.703125 -8.015625 L 3.703125 -7.171875 L 3.734375 -7.171875 C 4.453125 -7.890625 5.21875 -8.25 6.03125 -8.25 C 6.425781 -8.25 6.816406 -8.195312 7.203125 -8.09375 C 7.597656 -7.988281 7.972656 -7.828125 8.328125 -7.609375 C 8.691406 -7.390625 8.984375 -7.078125 9.203125 -6.671875 C 9.429688 -6.273438 9.546875 -5.8125 9.546875 -5.28125 L 9.546875 0 L 6.78125 0 L 6.78125 -4.53125 C 6.78125 -4.945312 6.644531 -5.3125 6.375 -5.625 C 6.113281 -5.9375 5.769531 -6.09375 5.34375 -6.09375 C 4.925781 -6.09375 4.546875 -5.929688 4.203125 -5.609375 C 3.867188 -5.285156 3.703125 -4.925781 3.703125 -4.53125 L 3.703125 0 Z"
        />
      </g>
    </g>

    <path
      fill="none"
      stroke="#2D2D2D"
      stroke-width="3"
      stroke-linecap="butt"
      stroke-linejoin="miter"
      stroke-miterlimit="4"
      d="M -0.00259882 1.502076 L 25.439494 1.502076"
      transform="matrix(0.713323 0 0 0.713323 3.458885 22.823065)"
    />
    <path
      fill="none"
      stroke="#2D2D2D"
      stroke-width="3"
      stroke-linecap="butt"
      stroke-linejoin="miter"
      stroke-miterlimit="4"
      d="M 0.00103698 1.497426 L 24.849475 1.497426"
      transform="matrix(0 0.725806 -0.725806 0 5.563404 6.604716)"
    />
    <path
      fill="none"
      stroke="#2D2D2D"
      stroke-width="3"
      stroke-linecap="butt"
      stroke-linejoin="miter"
      stroke-miterlimit="4"
      d="M -0.00119312 1.499942 L 25.4409 1.499942"
      transform="matrix(-0.713323 0 0 -0.713323 26.854618 4.429319)"
    />
    <path
      fill="none"
      stroke="#2D2D2D"
      stroke-width="3"
      stroke-linecap="butt"
      stroke-linejoin="miter"
      stroke-miterlimit="4"
      d="M -0.00193916 1.498328 L 24.846499 1.498328"
      transform="matrix(0 -0.725806 0.725806 0 24.678129 20.936093)"
    />
  </g>
</svg>
